<?xml version="1.0" encoding="UTF-8"?>
<svg width="286px" height="168px" viewBox="0 0 286 168" version="1.1" xmlns="http://www.w3.org/2000/svg" xmlns:xlink="http://www.w3.org/1999/xlink">
    <!-- Generator: Sketch 61.2 (89653) - https://sketch.com -->
    <title>the-woods-surrey-logo</title>
    <desc>Created with Sketch.</desc>
    <g id="logo" stroke="none" stroke-width="1" fill="none" fill-rule="evenodd">
        <g id="Desktop-HD" transform="translate(-578.000000, -427.000000)" fill="#FFFFFF">
            <g id="the-woods-surrey-logo" transform="translate(578.000000, 427.000000)">
                <g id="Group" transform="translate(119.000000, 0.000000)">
                    <g id="Path">
                        <path d="M23.9707368,0.00639691378 C24.7299068,0.00639691378 25.4904144,0.110959434 26.1882153,0.3191042 C30.5153167,1.80111454 32.3498659,5.12669281 32.2237835,9.36882692 C32.2003729,9.93395466 31.8222929,11.1950767 31.4203008,12.1992036 C31.017138,13.2067615 30.6235068,13.9988226 30.6235068,13.9988226 L29.1994779,16.857954 L32.217262,15.671006 C38.3963032,13.2446654 44.2419116,15.8704917 46.1498695,20.1511833 C47.1306033,22.3514074 46.9120493,24.7408244 45.7318244,27.1872606 C44.5517666,29.6336968 42.3869618,32.0698401 39.6409071,34.0669843 L37.7008433,35.4774346 L40.0000914,36.2146004 C42.571905,37.0391739 44.675508,38.1068552 46.0127507,39.504562 C47.3416325,40.8934464 48.0170262,42.582948 47.7763994,45.1493043 C47.1637125,48.6211067 45.8102496,50.3215547 43.7690189,51.3526392 C41.7165847,52.3896053 38.7777275,52.6738847 35.222003,52.632223 L34.3238749,52.6126176 L34.0233841,53.4391516 C33.1715753,55.7870703 31.8585792,58.1822055 30.247935,59.9455544 C28.6901317,61.6509038 26.9152794,62.7239766 24.9864192,62.8620318 C25.5032902,58.4664849 26.0230039,53.599263 26.4104481,48.8057249 L37.8446508,44.0192122 L36.8582316,41.7663801 L26.6129492,46.0550772 C26.7718063,43.7362399 26.8958821,41.5157568 26.9231386,39.6316709 C26.9532379,37.5391134 26.8646123,34.9538051 26.7141161,32.2541316 L39.689902,24.327639 L38.3605185,22.2502759 L26.5149594,29.4874726 C26.0181546,22.2120452 25.2476138,14.9972313 25.2476138,14.9972313 L22.7525534,15.258801 C22.7525534,15.258801 23.4933293,22.3430751 23.986957,29.449242 L14.4503447,22.7895897 L12.9905311,24.7839564 L24.2123669,32.6114413 C24.3561744,35.1952792 24.4431278,37.6498843 24.414868,39.5965444 C24.3881131,41.3991042 24.2693883,43.5467203 24.1143771,45.7998793 L14.479775,41.7663801 L13.4901786,44.0192122 L23.921742,48.3878016 C23.5334617,53.2115647 23.0028788,58.161293 22.4781486,62.632321 C18.8038665,61.7144582 15.5762238,58.3235283 13.9376541,53.4646387 L13.6632493,52.6508482 L12.7880301,52.62144 C9.39350376,52.5070748 6.31669173,52.2017195 4.14954586,51.1725956 C1.99477414,50.1495167 0.612549774,48.5632706 0.184638797,45.1958673 C0.0909966917,42.3734962 0.713716692,40.6565469 1.93507729,39.3469014 C3.1666382,38.0266362 5.16071338,37.0582892 7.93803789,36.2100258 L10.237286,35.5081499 L8.32999699,34.0689448 C5.81754586,32.1747294 3.63585203,29.7253524 2.39241865,27.2370912 C1.14898526,24.7489933 0.835618647,22.3066416 1.80130286,20.1402369 C3.74738647,15.7740982 8.93465744,12.9693719 15.730566,15.6600597 L18.7582159,16.856647 L17.3310099,13.9880396 C17.3310099,13.9880396 16.9340343,13.1958151 16.5307044,12.1882572 C16.1297155,11.1862542 15.7561504,9.93117722 15.730566,9.36425231 C15.7723705,4.72919185 17.6111002,1.59770776 21.7530911,0.308157811 L21.7530911,0.324495705 L21.7530911,0.324495705 C22.4503904,0.115860802 23.2082226,0.0114616608 23.9673925,0.0117884187 L23.9707368,0.00639691378 Z"></path>
                        <path d="M22.1948812,64.7431769 C22.1948812,64.7431769 21.3731717,73.0756661 19.9282406,78.2506939 L22.345043,78.8952238 C23.903348,73.3141993 24.6899417,64.9728877 24.6899417,64.9728877 L22.1948812,64.7431769 Z"></path>
                    </g>
                </g>
                <path d="M12.624,129.192 C13.728,129.048 15.072,129 16.848,129 C17.952,129 18.96,129.048 19.584,129.096 C19.3498537,127.082341 19.1157073,121.276654 19.1044248,115.645915 L19.104,96.936 C22.848,96.936 24.768,96.984 26.496,97.128 C29.376,97.32 30.912,97.656 31.824,98.28 C31.872,96.408 32.064,94.248 32.448,92.568 C31.4747586,92.846069 28.1299405,92.9898977 25.0921776,92.9994863 L8.784,93 C4.464,93 2.352,92.856 1.056,92.52 C0.912,93.912 0.432,96.792 0.096,97.944 C1.584,97.416 3.216,97.224 6.672,97.032 C9.744,96.888 10.992,96.936 13.056,96.936 L13.056,115.224 C13.056,121.368 12.864,127.272 12.624,129.192 Z M56.7013333,129.144 C56.9413333,129.096 59.0533333,129 60.4453333,129 C61.5013333,129 62.8453333,129.048 63.3733333,129.096 C63.1403922,127.232471 62.952669,122.384554 62.9418279,117.712189 L62.9413333,110.088 C62.9413333,104.328 63.1333333,99.816 63.3733333,98.232 C62.4133333,98.376 61.0693333,98.424 59.5813333,98.424 C58.2853333,98.424 57.3253333,98.376 56.7013333,98.328 C56.8933333,99.912 57.1333333,103.608 57.1333333,109.416 L57.1333333,109.992 C57.1333333,110.184 57.0373333,110.232 56.9413333,110.232 L41.5813333,110.232 C41.4853333,110.232 41.4373333,110.184 41.4373333,109.992 L41.4373333,109.416 C41.4373333,103.368 41.6773333,99.72 41.7733333,98.232 C41.1013333,98.328 39.5653333,98.424 37.9333333,98.424 C36.8293333,98.424 35.5813333,98.376 35.0533333,98.328 C35.4373333,100.008 35.6293333,104.28 35.6293333,110.088 L35.6293333,117.288 C35.6293333,122.472 35.3893333,127.368 35.1973333,129.144 C35.8213333,129.096 37.4053333,129 39.2293333,129 C40.3813333,129 41.3893333,129.048 41.8693333,129.096 C41.6829804,127.232471 41.4514095,122.384554 41.4379488,117.712189 L41.4373333,114.552 C41.4373333,114.456 41.4853333,114.36 41.5813333,114.36 L56.9893333,114.36 C57.0853333,114.36 57.1333333,114.408 57.1333333,114.552 L57.1333333,117.288 C57.1333333,122.472 56.8933333,127.368 56.7013333,129.144 Z M90.0746667,129.144 C90.2186667,127.992 90.6986667,125.88 91.1306667,124.536 C89.6426667,125.208 87.3386667,125.496 83.8826667,125.496 C82.1066667,125.496 80.9066667,125.4 79.7546667,125.304 C79.3226667,125.256 78.9386667,125.16 78.7946667,125.016 C78.6060351,124.827368 78.5100646,123.851117 78.5067553,117.125812 L78.5066667,114.792 C78.5066667,114.696 78.5546667,114.6 78.6506667,114.6 C79.7066667,114.6 83.8826667,114.648 85.2746667,114.744 C87.0986667,114.888 87.9146667,115.128 88.6346667,115.56 C88.6346667,114.36 88.7786667,111.912 89.0666667,110.568 C88.5386667,110.712 87.7226667,110.856 85.1306667,110.952 C83.6906667,111 79.5626667,111 78.6506667,111 C78.5546667,111 78.5066667,110.856 78.5066667,110.76 L78.5066667,102.216 C78.5066667,102.12 78.6026667,102.072 78.6506667,102.072 C81.1466667,102.072 83.8346667,102.168 85.2746667,102.264 C87.6746667,102.456 88.6826667,102.744 89.4026667,103.128 C89.4026667,100.968 89.6426667,99.048 89.7866667,98.184 C89.0794667,98.392 87.54304,98.4197333 86.3022507,98.4234311 L75.1140258,98.4236504 C73.9847258,98.4217278 72.8131282,98.4092308 72.1226667,98.328 C72.4510303,99.5476364 72.687708,103.242793 72.6982965,109.637477 L72.6986667,117.288 C72.6986667,123.336 72.4106667,127.608 72.2186667,129.096 C72.8906667,129.048 74.2826667,129 76.1546667,129 C78.5726667,129 81.7564635,129.270281 87.1025104,129.287174 L87.6266667,129.288 C89.3066667,129.288 89.8826667,129.24 90.0746667,129.144 Z M139.061333,129.816 C139.397333,129.816 139.733333,129.144 140.549333,127.176 C144.005333,117.864 148.037333,106.92 149.285333,103.752 C151.253333,98.424 152.981333,94.632 153.797333,92.808 C153.077333,92.904 151.637333,93 149.861333,93 C149.045333,93 148.133333,92.952 147.557333,92.904 C147.173333,95.304 146.309333,98.328 144.917333,102.696 C143.477333,107.16 141.221333,113.16 139.685333,117.576 L130.661333,94.872 C130.133333,93.768 129.701333,92.904 129.461333,92.904 C129.221333,92.904 129.077333,93.192 128.405333,94.632 L118.709333,117.72 C117.413333,114.12 114.149333,103.848 113.573333,101.688 C112.373333,97.752 111.557333,94.776 111.173333,92.808 C110.536702,92.8989474 108.909223,92.9898947 107.107155,92.9992162 L106.805333,93 C105.077333,93 103.685333,92.952 103.109333,92.904 C104.501333,95.064 106.133333,99.192 107.573333,103.272 L115.589333,126.792 C116.453333,129.144 116.693333,129.816 117.029333,129.816 C117.365333,129.816 117.797333,129.096 118.709333,127.128 C121.157333,121.56 125.861333,109.896 128.405333,104.28 L137.669333,127.56 C138.293333,129 138.725333,129.816 139.061333,129.816 Z M171.042667,129.672 C181.890667,129.672 188.082667,122.328 188.082667,112.92 C188.082667,104.616 181.842667,97.704 171.522667,97.704 C159.954667,97.704 154.338667,105.816 154.338667,113.928 C154.338667,121.176 159.330667,129.672 171.042667,129.672 Z M171.954667,126.216 C164.802667,126.216 160.914667,119.88 160.866667,112.632 C160.866667,105.144 164.946667,101.16 170.514667,101.16 C177.618667,101.16 181.506667,107.4 181.506667,114.264 C181.506667,123.768 175.938667,126.216 171.954667,126.216 Z M209.168,129.672 C220.016,129.672 226.208,122.328 226.208,112.92 C226.208,104.616 219.968,97.704 209.648,97.704 C198.08,97.704 192.464,105.816 192.464,113.928 C192.464,121.176 197.456,129.672 209.168,129.672 Z M210.08,126.216 C202.928,126.216 199.04,119.88 198.992,112.632 C198.992,105.144 203.072,101.16 208.64,101.16 C215.744,101.16 219.632,107.4 219.632,114.264 C219.632,123.768 214.064,126.216 210.08,126.216 Z M243.981333,129.48 C251.565333,129.48 255.405333,126.888 257.757333,124.68 C260.157333,122.328 262.317333,118.44 262.317333,113.496 C262.317333,108.552 260.397333,105.192 258.285333,103.08 C254.301333,99.24 248.877333,98.28 242.253333,98.232 C239.119893,98.27808 236.517295,98.4126336 235.20995,98.4233242 L235.053333,98.424 C233.901333,98.424 232.653333,98.376 232.173333,98.328 C232.413333,99.624 232.701333,103.272 232.701333,110.04 L232.701333,117.432 C232.701333,123.576 232.509333,127.32 232.365333,129.048 C235.005333,128.904 236.637333,129.096 238.989333,129.288 C240.429333,129.432 242.205333,129.48 243.981333,129.48 Z M244.461333,126.024 C241.677333,126.024 239.469333,125.448 238.893333,125.016 C238.701333,124.824 238.605333,124.344 238.605333,122.76 C238.560242,121.858182 238.515152,120.024485 238.509852,116.184553 L238.509852,108.91845 C238.515733,105.530773 238.560533,102.9264 238.605333,102.12 C238.605333,102.024 238.653333,101.928 238.845333,101.832 C239.325333,101.688 240.669333,101.544 242.157333,101.544 C246.765333,101.544 250.989333,102.936 253.437333,106.008 C255.405333,108.504 256.077333,111.432 256.077333,114.456 C256.077333,118.056 254.829333,121.272 252.717333,123.288 C250.413333,125.448 247.485333,126.024 244.461333,126.024 Z M273.850667,129.672 C275.866667,129.672 278.650667,129.336 280.858667,127.944 C283.930667,126.072 285.082667,122.808 285.082667,120.504 C285.082667,117 283.690667,114.696 278.458667,111.384 L276.298667,110.04 C273.178667,108.024 272.746667,106.776 272.746667,105.096 C272.746667,102.936 274.378667,101.4 277.210667,101.4 C280.954667,101.4 283.162667,103.224 283.978667,104.184 C283.978667,101.784 284.266667,98.904 284.410667,98.424 C284.074667,98.424 283.162667,98.28 281.674667,98.04 C280.570667,97.848 278.986667,97.704 277.258667,97.704 C270.922667,97.704 267.178667,101.592 267.178667,106.248 C267.178667,109.272 268.282667,112.152 273.034667,115.128 L275.194667,116.472 C278.506667,118.536 279.178667,119.88 279.178667,121.752 C279.178667,124.056 277.594667,125.832 274.282667,125.832 C270.874667,125.832 267.946667,123.816 266.458667,122.04 C266.506667,123.96 266.218667,127.176 266.026667,127.944 C267.658667,129 271.066667,129.672 273.850667,129.672 Z" id="TheWoods" fill-rule="nonzero"></path>
                <path d="M99.992,167.24 C103.616,167.24 106.16,165.368 106.16,162.032 L106.16,161.984 C106.16,159.056 104.24,157.832 100.832,156.944 C97.928,156.2 97.208,155.84 97.208,154.736 L97.208,154.688 C97.208,153.872 97.952,153.224 99.368,153.224 C100.784,153.224 102.248,153.848 103.736,154.88 L105.656,152.096 C103.952,150.728 101.864,149.96 99.416,149.96 C95.984,149.96 93.536,151.976 93.536,155.024 L93.536,155.072 C93.536,158.408 95.72,159.344 99.104,160.208 C101.912,160.928 102.488,161.408 102.488,162.344 L102.488,162.392 C102.488,163.376 101.576,163.976 100.064,163.976 C98.144,163.976 96.56,163.184 95.048,161.936 L92.864,164.552 C94.88,166.352 97.448,167.24 99.992,167.24 Z M116.384,167.264 C120.896,167.264 123.752,164.768 123.752,159.68 L123.752,150.2 L120.056,150.2 L120.056,159.824 C120.056,162.488 118.688,163.856 116.432,163.856 C114.176,163.856 112.808,162.44 112.808,159.704 L112.808,150.2 L109.112,150.2 L109.112,159.8 C109.112,164.744 111.872,167.264 116.384,167.264 Z M131.216,167 L131.216,161.624 L134.12,161.624 L137.72,167 L142.04,167 L137.936,161 C140.072,160.208 141.536,158.504 141.536,155.792 L141.536,155.744 C141.536,154.16 141.032,152.84 140.096,151.904 C138.992,150.8 137.336,150.2 135.2,150.2 L127.52,150.2 L127.52,167 L131.216,167 Z M134.96,158.36 L131.216,158.36 L131.216,153.536 L134.888,153.536 C136.688,153.536 137.792,154.352 137.792,155.936 L137.792,155.984 C137.792,157.4 136.76,158.36 134.96,158.36 Z M148.568,167 L148.568,161.624 L151.472,161.624 L155.072,167 L159.392,167 L155.288,161 C157.424,160.208 158.888,158.504 158.888,155.792 L158.888,155.744 C158.888,154.16 158.384,152.84 157.448,151.904 C156.344,150.8 154.688,150.2 152.552,150.2 L144.872,150.2 L144.872,167 L148.568,167 Z M152.312,158.36 L148.568,158.36 L148.568,153.536 L152.24,153.536 C154.04,153.536 155.144,154.352 155.144,155.936 L155.144,155.984 C155.144,157.4 154.112,158.36 152.312,158.36 Z M175.016,167 L175.016,163.712 L165.896,163.712 L165.896,160.184 L173.816,160.184 L173.816,156.896 L165.896,156.896 L165.896,153.488 L174.896,153.488 L174.896,150.2 L162.224,150.2 L162.224,167 L175.016,167 Z M186.728,167 L186.728,160.304 L193.184,150.2 L188.984,150.2 L184.904,156.944 L180.896,150.2 L176.576,150.2 L183.032,160.376 L183.032,167 L186.728,167 Z" id="SURREY" fill-rule="nonzero"></path>
            </g>
        </g>
    </g>
</svg>