<?xml version="1.0" encoding="UTF-8"?>
<svg width="286px" height="168px" viewBox="0 0 286 168" version="1.1" xmlns="http://www.w3.org/2000/svg" xmlns:xlink="http://www.w3.org/1999/xlink">
    <!-- Generator: Sketch 61.2 (89653) - https://sketch.com -->
    <title>the-woods-surrey-logo</title>
    <desc>Created with Sketch.</desc>
    <g id="logo" stroke="none" stroke-width="1" fill="none" fill-rule="evenodd">
        <g id="Desktop-HD" transform="translate(-578.000000, -427.000000)" fill="#FFFFFF">
            <g id="the-woods-surrey-logo" transform="translate(578.000000, 427.000000)">
                <g id="Group" transform="translate(119.000000, 0.000000)">
                    <g id="Path">
                        <path d="M23.9707368,0.00639691378 C24.7299068,0.00639691378 25.4904144,0.110959434 26.1882153,0.3191042 C30.5153167,1.80111454 32.3498659,5.12669281 32.2237835,9.36882692 C32.2003729,9.93395466 31.8222929,11.1950767 31.4203008,12.1992036 C31.017138,13.2067615 30.6235068,13.9988226 30.6235068,13.9988226 L29.1994779,16.857954 L32.217262,15.671006 C38.3963032,13.2446654 44.2419116,15.8704917 46.1498695,20.1511833 C47.1306033,22.3514074 46.9120493,24.7408244 45.7318244,27.1872606 C44.5517666,29.6336968 42.3869618,32.0698401 39.6409071,34.0669843 L37.7008433,35.4774346 L40.0000914,36.2146004 C42.571905,37.0391739 44.675508,38.1068552 46.0127507,39.504562 C47.3416325,40.8934464 48.0170262,42.582948 47.7763994,45.1493043 C47.1637125,48.6211067 45.8102496,50.3215547 43.7690189,51.3526392 C41.7165847,52.3896053 38.7777275,52.6738847 35.222003,52.632223 L34.3238749,52.6126176 L34.0233841,53.4391516 C33.1715753,55.7870703 31.8585792,58.1822055 30.247935,59.9455544 C28.6901317,61.6509038 26.9152794,62.7239766 24.9864192,62.8620318 C25.5032902,58.4664849 26.0230039,53.599263 26.4104481,48.8057249 L37.8446508,44.0192122 L36.8582316,41.7663801 L26.6129492,46.0550772 C26.7718063,43.7362399 26.8958821,41.5157568 26.9231386,39.6316709 C26.9532379,37.5391134 26.8646123,34.9538051 26.7141161,32.2541316 L39.689902,24.327639 L38.3605185,22.2502759 L26.5149594,29.4874726 C26.0181546,22.2120452 25.2476138,14.9972313 25.2476138,14.9972313 L22.7525534,15.258801 C22.7525534,15.258801 23.4933293,22.3430751 23.986957,29.449242 L14.4503447,22.7895897 L12.9905311,24.7839564 L24.2123669,32.6114413 C24.3561744,35.1952792 24.4431278,37.6498843 24.414868,39.5965444 C24.3881131,41.3991042 24.2693883,43.5467203 24.1143771,45.7998793 L14.479775,41.7663801 L13.4901786,44.0192122 L23.921742,48.3878016 C23.5334617,53.2115647 23.0028788,58.161293 22.4781486,62.632321 C18.8038665,61.7144582 15.5762238,58.3235283 13.9376541,53.4646387 L13.6632493,52.6508482 L12.7880301,52.62144 C9.39350376,52.5070748 6.31669173,52.2017195 4.14954586,51.1725956 C1.99477414,50.1495167 0.612549774,48.5632706 0.184638797,45.1958673 C0.0909966917,42.3734962 0.713716692,40.6565469 1.93507729,39.3469014 C3.1666382,38.0266362 5.16071338,37.0582892 7.93803789,36.2100258 L10.237286,35.5081499 L8.32999699,34.0689448 C5.81754586,32.1747294 3.63585203,29.7253524 2.39241865,27.2370912 C1.14898526,24.7489933 0.835618647,22.3066416 1.80130286,20.1402369 C3.74738647,15.7740982 8.93465744,12.9693719 15.730566,15.6600597 L18.7582159,16.856647 L17.3310099,13.9880396 C17.3310099,13.9880396 16.9340343,13.1958151 16.5307044,12.1882572 C16.1297155,11.1862542 15.7561504,9.93117722 15.730566,9.36425231 C15.7723705,4.72919185 17.6111002,1.59770776 21.7530911,0.308157811 L21.7530911,0.324495705 L21.7530911,0.324495705 C22.4503904,0.115860802 23.2082226,0.0114616608 23.9673925,0.0117884187 L23.9707368,0.00639691378 Z"></path>
                        <path d="M22.1948812,64.7431769 C22.1948812,64.7431769 21.3731717,73.0756661 19.9282406,78.2506939 L22.345043,78.8952238 C23.903348,73.3141993 24.6899417,64.9728877 24.6899417,64.9728877 L22.1948812,64.7431769 Z"></path>
                    </g>
                </g>
                <text id="The-Woods" font-family="TrajanSansPro-Semibold, Trajan Sans Pro" font-size="48" font-weight="500" letter-spacing="-1.66666667">
                    <tspan x="0" y="129">The Woods</tspan>
                </text>
                <text id="SURREY" font-family="Gotham-Bold, Gotham" font-size="24" font-weight="bold">
                    <tspan x="92" y="167">SURREY</tspan>
                </text>
            </g>
        </g>
    </g>
</svg>